<svg width="567" height="263" viewBox="0 0 567 263" fill="none" xmlns="http://www.w3.org/2000/svg">
<path d="M15.145 63.42H29.705V72H4.03V26.37H15.145V63.42ZM56.5866 72.455C52.2966 72.455 48.3532 71.4583 44.7566 69.465C41.2032 67.4717 38.3649 64.6983 36.2416 61.145C34.1616 57.5483 33.1216 53.5183 33.1216 49.055C33.1216 44.5917 34.1616 40.5833 36.2416 37.03C38.3649 33.4767 41.2032 30.7033 44.7566 28.71C48.3532 26.7167 52.2966 25.72 56.5866 25.72C60.8766 25.72 64.7982 26.7167 68.3516 28.71C71.9482 30.7033 74.7649 33.4767 76.8016 37.03C78.8816 40.5833 79.9216 44.5917 79.9216 49.055C79.9216 53.5183 78.8816 57.5483 76.8016 61.145C74.7216 64.6983 71.9049 67.4717 68.3516 69.465C64.7982 71.4583 60.8766 72.455 56.5866 72.455ZM56.5866 62.315C60.2266 62.315 63.1299 61.1017 65.2966 58.675C67.5066 56.2483 68.6116 53.0417 68.6116 49.055C68.6116 45.025 67.5066 41.8183 65.2966 39.435C63.1299 37.0083 60.2266 35.795 56.5866 35.795C52.9032 35.795 49.9566 36.9867 47.7466 39.37C45.5799 41.7533 44.4966 44.9817 44.4966 49.055C44.4966 53.085 45.5799 56.3133 47.7466 58.74C49.9566 61.1233 52.9032 62.315 56.5866 62.315ZM84.2202 49.12C84.2202 44.6133 85.1952 40.605 87.1452 37.095C89.0952 33.5417 91.8035 30.79 95.2702 28.84C98.7802 26.8467 102.745 25.85 107.165 25.85C112.582 25.85 117.219 27.28 121.075 30.14C124.932 33 127.51 36.9 128.81 41.84H116.59C115.68 39.9333 114.38 38.4817 112.69 37.485C111.044 36.4883 109.159 35.99 107.035 35.99C103.612 35.99 100.839 37.1817 98.7152 39.565C96.5919 41.9483 95.5302 45.1333 95.5302 49.12C95.5302 53.1067 96.5919 56.2917 98.7152 58.675C100.839 61.0583 103.612 62.25 107.035 62.25C109.159 62.25 111.044 61.7517 112.69 60.755C114.38 59.7583 115.68 58.3067 116.59 56.4H128.81C127.51 61.34 124.932 65.24 121.075 68.1C117.219 70.9167 112.582 72.325 107.165 72.325C102.745 72.325 98.7802 71.35 95.2702 69.4C91.8035 67.4067 89.0952 64.655 87.1452 61.145C85.1952 57.635 84.2202 53.6267 84.2202 49.12ZM164.022 63.94H146.992L144.262 72H132.627L149.137 26.37H162.007L178.517 72H166.752L164.022 63.94ZM161.162 55.36L155.507 38.655L149.917 55.36H161.162ZM194.657 63.42H209.217V72H183.542V26.37H194.657V63.42ZM226.408 49.12C226.408 44.6133 227.383 40.605 229.333 37.095C231.283 33.5417 233.991 30.79 237.458 28.84C240.968 26.8467 244.933 25.85 249.353 25.85C254.769 25.85 259.406 27.28 263.263 30.14C267.119 33 269.698 36.9 270.998 41.84H258.778C257.868 39.9333 256.568 38.4817 254.878 37.485C253.231 36.4883 251.346 35.99 249.223 35.99C245.799 35.99 243.026 37.1817 240.903 39.565C238.779 41.9483 237.718 45.1333 237.718 49.12C237.718 53.1067 238.779 56.2917 240.903 58.675C243.026 61.0583 245.799 62.25 249.223 62.25C251.346 62.25 253.231 61.7517 254.878 60.755C256.568 59.7583 257.868 58.3067 258.778 56.4H270.998C269.698 61.34 267.119 65.24 263.263 68.1C259.406 70.9167 254.769 72.325 249.353 72.325C244.933 72.325 240.968 71.35 237.458 69.4C233.991 67.4067 231.283 64.655 229.333 61.145C227.383 57.635 226.408 53.6267 226.408 49.12ZM299.384 72.455C295.094 72.455 291.151 71.4583 287.554 69.465C284.001 67.4717 281.163 64.6983 279.039 61.145C276.959 57.5483 275.919 53.5183 275.919 49.055C275.919 44.5917 276.959 40.5833 279.039 37.03C281.163 33.4767 284.001 30.7033 287.554 28.71C291.151 26.7167 295.094 25.72 299.384 25.72C303.674 25.72 307.596 26.7167 311.149 28.71C314.746 30.7033 317.563 33.4767 319.599 37.03C321.679 40.5833 322.719 44.5917 322.719 49.055C322.719 53.5183 321.679 57.5483 319.599 61.145C317.519 64.6983 314.703 67.4717 311.149 69.465C307.596 71.4583 303.674 72.455 299.384 72.455ZM299.384 62.315C303.024 62.315 305.928 61.1017 308.094 58.675C310.304 56.2483 311.409 53.0417 311.409 49.055C311.409 45.025 310.304 41.8183 308.094 39.435C305.928 37.0083 303.024 35.795 299.384 35.795C295.701 35.795 292.754 36.9867 290.544 39.37C288.378 41.7533 287.294 44.9817 287.294 49.055C287.294 53.085 288.378 56.3133 290.544 58.74C292.754 61.1233 295.701 62.315 299.384 62.315ZM369.723 72H358.608L340.018 43.855V72H328.903V26.37H340.018L358.608 54.645V26.37H369.723V72ZM410.605 26.37V35.275H398.515V72H387.4V35.275H375.31V26.37H410.605ZM427.298 35.275V44.505H442.183V53.085H427.298V63.095H444.133V72H416.183V26.37H444.133V35.275H427.298ZM492.169 72H481.054L462.464 43.855V72H451.349V26.37H462.464L481.054 54.645V26.37H492.169V72ZM533.051 26.37V35.275H520.961V72H509.846V35.275H497.756V26.37H533.051Z" fill="#2BC241"/>
<path d="M18.95 123.708C22.354 123.708 25.3287 124.383 27.874 125.732C30.4193 127.081 32.382 128.983 33.762 131.436C35.1727 133.859 35.878 136.665 35.878 139.854C35.878 143.013 35.1727 145.819 33.762 148.272C32.382 150.725 30.404 152.627 27.828 153.976C25.2827 155.325 22.3233 156 18.95 156H6.852V123.708H18.95ZM18.444 149.192C21.4187 149.192 23.734 148.379 25.39 146.754C27.046 145.129 27.874 142.829 27.874 139.854C27.874 136.879 27.046 134.564 25.39 132.908C23.734 131.252 21.4187 130.424 18.444 130.424H14.718V149.192H18.444ZM48.1399 130.01V136.542H58.6739V142.614H48.1399V149.698H60.0539V156H40.2739V123.708H60.0539V130.01H48.1399ZM95.4746 123.708L84.0206 156H74.1766L62.7226 123.708H71.0946L79.0986 148.088L87.1486 123.708H95.4746ZM106.628 130.01V136.542H117.162V142.614H106.628V149.698H118.542V156H98.7622V123.708H118.542V130.01H106.628ZM131.515 149.928H141.819V156H123.649V123.708H131.515V149.928ZM160.843 156.322C157.807 156.322 155.016 155.617 152.471 154.206C149.956 152.795 147.947 150.833 146.445 148.318C144.973 145.773 144.237 142.921 144.237 139.762C144.237 136.603 144.973 133.767 146.445 131.252C147.947 128.737 149.956 126.775 152.471 125.364C155.016 123.953 157.807 123.248 160.843 123.248C163.879 123.248 166.654 123.953 169.169 125.364C171.714 126.775 173.707 128.737 175.149 131.252C176.621 133.767 177.357 136.603 177.357 139.762C177.357 142.921 176.621 145.773 175.149 148.318C173.677 150.833 171.683 152.795 169.169 154.206C166.654 155.617 163.879 156.322 160.843 156.322ZM160.843 149.146C163.419 149.146 165.473 148.287 167.007 146.57C168.571 144.853 169.353 142.583 169.353 139.762C169.353 136.91 168.571 134.641 167.007 132.954C165.473 131.237 163.419 130.378 160.843 130.378C158.236 130.378 156.151 131.221 154.587 132.908C153.053 134.595 152.287 136.879 152.287 139.762C152.287 142.614 153.053 144.899 154.587 146.616C156.151 148.303 158.236 149.146 160.843 149.146ZM206.343 134.104C206.343 135.975 205.914 137.692 205.055 139.256C204.196 140.789 202.878 142.031 201.099 142.982C199.32 143.933 197.112 144.408 194.475 144.408H189.599V156H181.733V123.708H194.475C197.051 123.708 199.228 124.153 201.007 125.042C202.786 125.931 204.12 127.158 205.009 128.722C205.898 130.286 206.343 132.08 206.343 134.104ZM193.877 138.152C195.38 138.152 196.499 137.799 197.235 137.094C197.971 136.389 198.339 135.392 198.339 134.104C198.339 132.816 197.971 131.819 197.235 131.114C196.499 130.409 195.38 130.056 193.877 130.056H189.599V138.152H193.877ZM218.304 130.01V136.542H228.838V142.614H218.304V149.698H230.218V156H210.438V123.708H230.218V130.01H218.304ZM271.895 123.708V156H264.029V136.634L256.807 156H250.459L243.191 136.588V156H235.325V123.708H244.617L253.679 146.064L262.649 123.708H271.895ZM285.417 130.01V136.542H295.951V142.614H285.417V149.698H297.331V156H277.551V123.708H297.331V130.01H285.417ZM331.326 156H323.46L310.304 136.082V156H302.438V123.708H310.304L323.46 143.718V123.708H331.326V156ZM360.258 123.708V130.01H351.702V156H343.836V130.01H335.28V123.708H360.258Z" fill="white"/>
<path d="M29.253 219.676C29.253 221.669 28.7957 223.498 27.881 225.164C26.9663 226.797 25.5617 228.12 23.667 229.133C21.7723 230.146 19.4203 230.652 16.611 230.652H11.417V243H3.038V208.602H16.611C19.355 208.602 21.6743 209.076 23.569 210.023C25.4637 210.97 26.8847 212.277 27.832 213.943C28.7793 215.609 29.253 217.52 29.253 219.676ZM15.974 223.988C17.5747 223.988 18.767 223.612 19.551 222.861C20.335 222.11 20.727 221.048 20.727 219.676C20.727 218.304 20.335 217.242 19.551 216.491C18.767 215.74 17.5747 215.364 15.974 215.364H11.417V223.988H15.974ZM51.1571 243L44.0031 230.015H41.9941V243H33.6151V208.602H47.6781C50.3895 208.602 52.6925 209.076 54.5871 210.023C56.5145 210.97 57.9518 212.277 58.8991 213.943C59.8465 215.576 60.3202 217.406 60.3202 219.431C60.3202 221.718 59.6668 223.759 58.3601 225.556C57.0861 227.353 55.1915 228.627 52.6762 229.378L60.6142 243H51.1571ZM41.9941 224.086H47.1881C48.7235 224.086 49.8668 223.71 50.6181 222.959C51.4021 222.208 51.7941 221.146 51.7941 219.774C51.7941 218.467 51.4021 217.438 50.6181 216.687C49.8668 215.936 48.7235 215.56 47.1881 215.56H41.9941V224.086ZM81.848 243.343C78.614 243.343 75.6413 242.592 72.93 241.089C70.2513 239.586 68.1117 237.496 66.511 234.817C64.943 232.106 64.159 229.068 64.159 225.703C64.159 222.338 64.943 219.317 66.511 216.638C68.1117 213.959 70.2513 211.869 72.93 210.366C75.6413 208.863 78.614 208.112 81.848 208.112C85.082 208.112 88.0383 208.863 90.717 210.366C93.4283 211.869 95.5517 213.959 97.087 216.638C98.655 219.317 99.439 222.338 99.439 225.703C99.439 229.068 98.655 232.106 97.087 234.817C95.519 237.496 93.3957 239.586 90.717 241.089C88.0383 242.592 85.082 243.343 81.848 243.343ZM81.848 235.699C84.592 235.699 86.7807 234.784 88.414 232.955C90.08 231.126 90.913 228.708 90.913 225.703C90.913 222.665 90.08 220.248 88.414 218.451C86.7807 216.622 84.592 215.707 81.848 215.707C79.0713 215.707 76.85 216.605 75.184 218.402C73.5507 220.199 72.734 222.632 72.734 225.703C72.734 228.741 73.5507 231.175 75.184 233.004C76.85 234.801 79.0713 235.699 81.848 235.699ZM143.056 208.602V243H134.677V222.371L126.984 243H120.222L112.48 222.322V243H104.101V208.602H113.998L123.652 232.416L133.207 208.602H143.056ZM165.349 243.343C162.115 243.343 159.142 242.592 156.431 241.089C153.752 239.586 151.613 237.496 150.012 234.817C148.444 232.106 147.66 229.068 147.66 225.703C147.66 222.338 148.444 219.317 150.012 216.638C151.613 213.959 153.752 211.869 156.431 210.366C159.142 208.863 162.115 208.112 165.349 208.112C168.583 208.112 171.539 208.863 174.218 210.366C176.929 211.869 179.053 213.959 180.588 216.638C182.156 219.317 182.94 222.338 182.94 225.703C182.94 229.068 182.156 232.106 180.588 234.817C179.02 237.496 176.897 239.586 174.218 241.089C171.539 242.592 168.583 243.343 165.349 243.343ZM165.349 235.699C168.093 235.699 170.282 234.784 171.915 232.955C173.581 231.126 174.414 228.708 174.414 225.703C174.414 222.665 173.581 220.248 171.915 218.451C170.282 216.622 168.093 215.707 165.349 215.707C162.572 215.707 160.351 216.605 158.685 218.402C157.052 220.199 156.235 222.632 156.235 225.703C156.235 228.741 157.052 231.175 158.685 233.004C160.351 234.801 162.572 235.699 165.349 235.699ZM212.346 208.602V215.315H203.232V243H194.853V215.315H185.739V208.602H212.346ZM224.931 208.602V243H216.552V208.602H224.931ZM247.271 243.343C244.037 243.343 241.064 242.592 238.353 241.089C235.674 239.586 233.535 237.496 231.934 234.817C230.366 232.106 229.582 229.068 229.582 225.703C229.582 222.338 230.366 219.317 231.934 216.638C233.535 213.959 235.674 211.869 238.353 210.366C241.064 208.863 244.037 208.112 247.271 208.112C250.505 208.112 253.461 208.863 256.14 210.366C258.851 211.869 260.975 213.959 262.51 216.638C264.078 219.317 264.862 222.338 264.862 225.703C264.862 229.068 264.078 232.106 262.51 234.817C260.942 237.496 258.819 239.586 256.14 241.089C253.461 242.592 250.505 243.343 247.271 243.343ZM247.271 235.699C250.015 235.699 252.204 234.784 253.837 232.955C255.503 231.126 256.336 228.708 256.336 225.703C256.336 222.665 255.503 220.248 253.837 218.451C252.204 216.622 250.015 215.707 247.271 215.707C244.494 215.707 242.273 216.605 240.607 218.402C238.974 220.199 238.157 222.632 238.157 225.703C238.157 228.741 238.974 231.175 240.607 233.004C242.273 234.801 244.494 235.699 247.271 235.699ZM300.295 243H291.916L277.902 221.783V243H269.523V208.602H277.902L291.916 229.917V208.602H300.295V243ZM318.815 243.343C316.3 243.343 314.046 242.935 312.053 242.118C310.06 241.301 308.46 240.093 307.251 238.492C306.075 236.891 305.454 234.964 305.389 232.71H314.307C314.438 233.984 314.879 234.964 315.63 235.65C316.381 236.303 317.361 236.63 318.57 236.63C319.811 236.63 320.791 236.352 321.51 235.797C322.229 235.209 322.588 234.409 322.588 233.396C322.588 232.547 322.294 231.844 321.706 231.289C321.151 230.734 320.448 230.276 319.599 229.917C318.782 229.558 317.606 229.149 316.071 228.692C313.85 228.006 312.037 227.32 310.632 226.634C309.227 225.948 308.019 224.935 307.006 223.596C305.993 222.257 305.487 220.509 305.487 218.353C305.487 215.152 306.647 212.653 308.966 210.856C311.285 209.027 314.307 208.112 318.031 208.112C321.82 208.112 324.875 209.027 327.194 210.856C329.513 212.653 330.755 215.168 330.918 218.402H321.853C321.788 217.291 321.379 216.426 320.628 215.805C319.877 215.152 318.913 214.825 317.737 214.825C316.724 214.825 315.908 215.103 315.287 215.658C314.666 216.181 314.356 216.948 314.356 217.961C314.356 219.072 314.879 219.937 315.924 220.558C316.969 221.179 318.603 221.848 320.824 222.567C323.045 223.318 324.842 224.037 326.214 224.723C327.619 225.409 328.827 226.405 329.84 227.712C330.853 229.019 331.359 230.701 331.359 232.759C331.359 234.719 330.853 236.499 329.84 238.1C328.86 239.701 327.423 240.975 325.528 241.922C323.633 242.869 321.396 243.343 318.815 243.343ZM345.478 225.752C345.478 222.355 346.213 219.333 347.683 216.687C349.153 214.008 351.195 211.934 353.808 210.464C356.454 208.961 359.443 208.21 362.775 208.21C366.859 208.21 370.354 209.288 373.261 211.444C376.169 213.6 378.112 216.54 379.092 220.264H369.88C369.194 218.827 368.214 217.732 366.94 216.981C365.699 216.23 364.278 215.854 362.677 215.854C360.097 215.854 358.006 216.752 356.405 218.549C354.805 220.346 354.004 222.747 354.004 225.752C354.004 228.757 354.805 231.158 356.405 232.955C358.006 234.752 360.097 235.65 362.677 235.65C364.278 235.65 365.699 235.274 366.94 234.523C368.214 233.772 369.194 232.677 369.88 231.24H379.092C378.112 234.964 376.169 237.904 373.261 240.06C370.354 242.183 366.859 243.245 362.775 243.245C359.443 243.245 356.454 242.51 353.808 241.04C351.195 239.537 349.153 237.463 347.683 234.817C346.213 232.171 345.478 229.149 345.478 225.752ZM400.492 243.343C397.258 243.343 394.285 242.592 391.574 241.089C388.895 239.586 386.755 237.496 385.155 234.817C383.587 232.106 382.803 229.068 382.803 225.703C382.803 222.338 383.587 219.317 385.155 216.638C386.755 213.959 388.895 211.869 391.574 210.366C394.285 208.863 397.258 208.112 400.492 208.112C403.726 208.112 406.682 208.863 409.361 210.366C412.072 211.869 414.195 213.959 415.731 216.638C417.299 219.317 418.083 222.338 418.083 225.703C418.083 229.068 417.299 232.106 415.731 234.817C414.163 237.496 412.039 239.586 409.361 241.089C406.682 242.592 403.726 243.343 400.492 243.343ZM400.492 235.699C403.236 235.699 405.424 234.784 407.058 232.955C408.724 231.126 409.557 228.708 409.557 225.703C409.557 222.665 408.724 220.248 407.058 218.451C405.424 216.622 403.236 215.707 400.492 215.707C397.715 215.707 395.494 216.605 393.828 218.402C392.194 220.199 391.378 222.632 391.378 225.703C391.378 228.741 392.194 231.175 393.828 233.004C395.494 234.801 397.715 235.699 400.492 235.699ZM430.976 208.602V229.182C430.976 231.24 431.482 232.824 432.495 233.935C433.508 235.046 434.994 235.601 436.954 235.601C438.914 235.601 440.417 235.046 441.462 233.935C442.507 232.824 443.03 231.24 443.03 229.182V208.602H451.409V229.133C451.409 232.204 450.756 234.801 449.449 236.924C448.142 239.047 446.378 240.648 444.157 241.726C441.968 242.804 439.518 243.343 436.807 243.343C434.096 243.343 431.662 242.82 429.506 241.775C427.383 240.697 425.7 239.096 424.459 236.973C423.218 234.817 422.597 232.204 422.597 229.133V208.602H430.976ZM488.065 243H479.686L465.672 221.783V243H457.293V208.602H465.672L479.686 229.917V208.602H488.065V243ZM492.718 225.752C492.718 222.355 493.453 219.333 494.923 216.687C496.393 214.008 498.434 211.934 501.048 210.464C503.694 208.961 506.683 208.21 510.015 208.21C514.098 208.21 517.593 209.288 520.501 211.444C523.408 213.6 525.352 216.54 526.332 220.264H517.12C516.434 218.827 515.454 217.732 514.18 216.981C512.938 216.23 511.517 215.854 509.917 215.854C507.336 215.854 505.245 216.752 503.645 218.549C502.044 220.346 501.244 222.747 501.244 225.752C501.244 228.757 502.044 231.158 503.645 232.955C505.245 234.752 507.336 235.65 509.917 235.65C511.517 235.65 512.938 235.274 514.18 234.523C515.454 233.772 516.434 232.677 517.12 231.24H526.332C525.352 234.964 523.408 237.904 520.501 240.06C517.593 242.183 514.098 243.245 510.015 243.245C506.683 243.245 503.694 242.51 501.048 241.04C498.434 239.537 496.393 237.463 494.923 234.817C493.453 232.171 492.718 229.149 492.718 225.752ZM539.842 208.602V243H531.463V208.602H539.842ZM554.293 236.532H565.269V243H545.914V208.602H554.293V236.532Z" fill="white"/>
<path fill-rule="evenodd" clip-rule="evenodd" d="M455.728 100.106C458.598 97.8929 462.462 96.672 466.471 96.7119C470.479 96.7517 474.303 98.049 477.102 100.318C479.901 102.588 481.445 105.643 481.395 108.813C481.344 111.982 479.704 115.006 476.833 117.219L476.239 117.641L471.792 120.645L486.48 134.197C487.662 132.247 488.848 129.998 490.02 127.399C490.5 126.338 491.494 125.47 492.783 124.988C494.072 124.505 495.55 124.447 496.893 124.827C498.236 125.206 499.333 125.992 499.943 127.011C500.553 128.03 500.627 129.199 500.147 130.261C498.437 134.044 496.631 137.31 494.736 140.121L494.019 141.152L499.165 145.898C500.064 146.725 500.527 147.794 500.457 148.883C500.388 149.972 499.791 150.998 498.791 151.75C497.792 152.501 496.465 152.919 495.086 152.919C493.707 152.918 492.38 152.498 491.382 151.746L491.002 151.429L487.609 148.298C486.537 149.226 485.382 150.092 484.154 150.891C477.998 154.877 471.734 155.75 466.417 155.75C454.843 155.75 443.125 148.451 443.125 137.333C443.125 134.114 444.666 131.148 446.511 128.711C448.378 126.243 450.786 124.011 453.058 122.175C453.939 121.466 454.814 120.798 455.66 120.189L456.491 119.594L454.344 117.616C451.83 115.297 450.47 112.333 450.518 109.278C450.566 106.224 452.02 103.287 454.606 101.018L455.176 100.545L455.728 100.106ZM463.489 126.051C462.604 126.674 461.669 127.371 460.741 128.122C458.813 129.68 457.021 131.38 455.738 133.075C454.43 134.803 453.875 136.231 453.875 137.333C453.875 143.215 460.074 147.25 466.417 147.25C470.057 147.25 473.648 146.706 477.346 144.314C478.17 143.782 479.016 143.147 479.886 142.379L480.542 141.784L463.486 126.051H463.489ZM469.502 106.118C468.742 105.517 467.729 105.158 466.656 105.111C465.583 105.064 464.525 105.332 463.686 105.863L463.328 106.118L462.776 106.555L462.418 106.866C460.977 108.269 460.877 110.266 462.181 111.751L462.504 112.085L464.797 114.196L469.255 111.181L469.613 110.907C470.382 110.253 470.801 109.388 470.781 108.495C470.761 107.602 470.304 106.75 469.506 106.118H469.502Z" fill="white"/>
</svg>
