<svg width="630" height="30" viewBox="0 0 630 30" fill="none" xmlns="http://www.w3.org/2000/svg">
<rect opacity="0.9" x="30" y="15" width="275" height="4" fill="#D9D9D9"/>
<rect opacity="0.9" x="330" y="15" width="275" height="4" fill="#D9D9D9"/>
<circle cx="15" cy="15" r="15" fill="#2BC241"/>
<path d="M12.576 11.4V9.336H16.432V21H14.128V11.4H12.576Z" fill="white"/>
<circle cx="315" cy="15" r="15" fill="#888585"/>
<path opacity="0.7" d="M311.552 18.472C312.576 17.6187 313.392 16.9093 314 16.344C314.608 15.768 315.115 15.1707 315.52 14.552C315.925 13.9333 316.128 13.3253 316.128 12.728C316.128 12.184 316 11.7573 315.744 11.448C315.488 11.1387 315.093 10.984 314.56 10.984C314.027 10.984 313.616 11.1653 313.328 11.528C313.04 11.88 312.891 12.3653 312.88 12.984H310.704C310.747 11.704 311.125 10.7333 311.84 10.072C312.565 9.41067 313.483 9.08 314.592 9.08C315.808 9.08 316.741 9.40533 317.392 10.056C318.043 10.696 318.368 11.544 318.368 12.6C318.368 13.432 318.144 14.2267 317.696 14.984C317.248 15.7413 316.736 16.4027 316.16 16.968C315.584 17.5227 314.832 18.1947 313.904 18.984H318.624V20.84H310.72V19.176L311.552 18.472Z" fill="white"/>
<circle cx="615" cy="15" r="15" fill="#888585"/>
<path d="M610.88 12.408C610.933 11.3413 611.307 10.52 612 9.944C612.704 9.35733 613.627 9.064 614.768 9.064C615.547 9.064 616.213 9.20267 616.768 9.48C617.323 9.74667 617.739 10.1147 618.016 10.584C618.304 11.0427 618.448 11.5653 618.448 12.152C618.448 12.824 618.272 13.3947 617.92 13.864C617.579 14.3227 617.168 14.632 616.688 14.792V14.856C617.307 15.048 617.787 15.3893 618.128 15.88C618.48 16.3707 618.656 17 618.656 17.768C618.656 18.408 618.507 18.9787 618.208 19.48C617.92 19.9813 617.488 20.376 616.912 20.664C616.347 20.9413 615.664 21.08 614.864 21.08C613.659 21.08 612.677 20.776 611.92 20.168C611.163 19.56 610.763 18.664 610.72 17.48H612.896C612.917 18.0027 613.093 18.424 613.424 18.744C613.765 19.0533 614.229 19.208 614.816 19.208C615.36 19.208 615.776 19.0587 616.064 18.76C616.363 18.4507 616.512 18.056 616.512 17.576C616.512 16.936 616.309 16.4773 615.904 16.2C615.499 15.9227 614.869 15.784 614.016 15.784H613.552V13.944H614.016C615.531 13.944 616.288 13.4373 616.288 12.424C616.288 11.9653 616.149 11.608 615.872 11.352C615.605 11.096 615.216 10.968 614.704 10.968C614.203 10.968 613.813 11.1067 613.536 11.384C613.269 11.6507 613.115 11.992 613.072 12.408H610.88Z" fill="white"/>
</svg>